<?xml version="1.0" encoding="UTF-8" standalone="no"?>
<svg xmlns:svg="http://www.w3.org/2000/svg" xmlns="http://www.w3.org/2000/svg" width="15mm" height="20mm"
   viewBox="0 0 15 20">
   <style>
      #logo {
         display: inline;
         fill-opacity: 1;
         stroke: none;
      }

      #background {
         fill: #ffffff;
      }

      #face {
         fill: #e0ab8b;
      }

      #bonnet,
      #mask {
         fill: #3c89c2;
      }

      #eye-1,
      #eye-2 {
         fill: #000000;
      }
   </style>
   <g id="logo" transform="translate(0,-277)">
      <path id="background"
         d="M 6.5233152,296.89289 C 5.3460775,296.6303 4.322157,296.0268 3.3373193,295.01506 1.8396713,293.47649 0.75720903,291.28511 0.2127906,288.68957 0.02552528,287.79678 0.00383085,287.52681 2.3164628e-4,286.0447 -0.00293756,284.7467 0.02598989,284.25138 0.13550818,283.726 c 0.72201768,-3.46345 2.66932412,-5.74564 5.57711392,-6.5362 0.9336774,-0.25385 2.6155707,-0.25295 3.5691603,0.002 2.8268156,0.7555 4.8172226,3.05791 5.5310016,6.39802 0.249588,1.16794 0.249635,3.54132 7.5e-5,4.87975 -1.019722,5.4696 -4.711937,9.22142 -8.2895438,8.42341 z" />
      <path id="bonnet"
         d="m 14.348493,286.5703 c -0.157884,-0.41205 -0.420207,-0.91516 -0.688217,-1.31991 -0.956617,-1.44471 -2.353879,-2.47772 -4.0166652,-2.96956 -0.6836518,-0.20221 -1.2200296,-0.28564 -1.965087,-0.30563 -0.9682748,-0.026 -1.7126846,0.0874 -2.6111693,0.39773 -0.6463806,0.22325 -1.1606362,0.48087 -1.7272991,0.86528 -0.8127576,0.55137 -1.5859026,1.35959 -2.1146942,2.21063 -0.1740255,0.28008 -0.50304572,0.9447 -0.59230573,1.19646 -0.0320759,0.0905 -0.0658041,0.16449 -0.0749532,0.16449 -0.028869,0 -0.054808,-0.99288 -0.0363412,-1.39162 0.0923161,-1.99336 0.58345263,-3.62627 1.51308013,-5.03065 0.6496575,-0.98143 1.4914734,-1.72284 2.5587766,-2.25358 0.5045457,-0.25089 0.8094023,-0.36587 1.3056442,-0.4924 0.5531615,-0.14105 0.9464958,-0.18777 1.5872542,-0.1885 0.9280005,-8.8e-4 1.6737995,0.13741 2.4581551,0.45643 1.5795847,0.64246 2.7699247,1.78417 3.5690737,3.42326 0.543209,1.11415 0.848522,2.29316 0.948897,3.66432 0.02765,0.37782 0.02983,1.41422 0.0035,1.67649 l -0.01619,0.16155 z" />
      <path id="face"
         d="m 2.9383442,293.61208 c -0.225208,-0.30335 -0.5201194,-0.75558 -0.7122285,-1.09217 -0.364773,-0.6391 -0.8242522,-1.71186 -1.0592671,-2.47309 -0.32672336,-1.05828 -0.32768796,-1.0621 -0.34247168,-1.35313 -0.0428973,-0.84447 0.36961378,-2.12382 0.98736998,-3.06218 0.2823776,-0.42893 0.5005065,-0.69814 0.8608988,-1.0625 0.8687026,-0.87826 1.9838046,-1.51082 3.1882136,-1.80857 0.6421337,-0.15874 0.8757848,-0.18478 1.6384583,-0.18259 0.7247184,0.002 0.9548426,0.0254 1.5310646,0.15505 0.7438744,0.1674 1.6677408,0.56453 2.2834668,0.98158 1.009119,0.6835 1.760506,1.54564 2.280152,2.61623 0.354045,0.72942 0.59025,1.58311 0.591241,2.13689 8.69e-4,0.50465 -0.07104,0.80846 -0.456747,1.92882 -0.415965,1.20825 -0.970205,2.28979 -1.642248,3.20469 -0.09155,0.12464 -0.169173,0.22369 -0.172488,0.22011 -0.0033,-0.004 0.01212,-0.0939 0.03426,-0.20072 0.02995,-0.1444 0.04041,-0.3503 0.04076,-0.80278 3.08e-4,-0.51335 -0.0081,-0.65515 -0.05433,-0.90637 -0.116117,-0.63089 -0.197952,-0.84083 -0.701549,-1.79979 -0.201857,-0.38438 -0.400816,-0.80903 -0.521469,-1.11299 -0.397012,-1.0002 -0.572579,-1.37549 -0.8240749,-1.76149 -0.3318225,-0.5093 -0.6734511,-0.82891 -1.120795,-1.04856 -0.7366906,-0.36173 -1.7504328,-0.36579 -2.4522645,-0.01 -0.8139492,0.41281 -1.2234203,0.98399 -1.9004814,2.65101 -0.2810492,0.69199 -0.5397793,1.24922 -0.7245908,1.56056 -0.1933498,0.32573 -0.2806245,0.51518 -0.3889474,0.84435 -0.2453887,0.74564 -0.3043166,1.47622 -0.1878876,2.32931 0.022008,0.16116 0.035847,0.29721 0.030782,0.30233 -0.00506,0.005 -0.097238,-0.10925 -0.2048252,-0.25417 z" />
      <path id="mask"
         d="m 6.0400655,296.43611 c -0.8864256,-0.36271 -1.5932549,-1.02046 -2.009959,-1.87039 -0.2807753,-0.57268 -0.377583,-1.0264 -0.378496,-1.77389 -8.693e-4,-0.84299 0.1577102,-1.44985 0.5554552,-2.1235 0.2098636,-0.35544 0.3860667,-0.73291 0.7220377,-1.54676 0.4614822,-1.11788 0.7306115,-1.63161 1.0170013,-1.94129 0.4672476,-0.50525 1.0747547,-0.72787 1.7964177,-0.65829 0.3641862,0.0351 0.5392785,0.0819 0.8064309,0.21538 0.183073,0.0915 0.2602647,0.15218 0.4864181,0.38248 0.4072288,0.41469 0.6019656,0.77212 1.0917126,2.00378 0.119779,0.30123 0.299313,0.70502 0.398961,0.89729 0.660746,1.275 0.702288,1.37246 0.816842,1.91633 0.07876,0.37391 0.08553,1.2504 0.01271,1.64441 -0.251028,1.3581 -1.16741,2.43433 -2.4674209,2.89783 l -0.1856045,0.0662 v -0.60447 c 0,-0.33246 -0.011601,-0.66724 -0.02573,-0.74396 -0.032324,-0.17519 -0.1484149,-0.41766 -0.2671347,-0.55795 l -0.091144,-0.1077 v -0.54521 c 0,-0.64717 -0.022794,-0.74292 -0.2236973,-0.93995 -0.1646517,-0.16146 -0.2675593,-0.20896 -0.4834236,-0.22313 -0.2634747,-0.0173 -0.4179595,0.0407 -0.6005733,0.22541 -0.2007521,0.20307 -0.2202112,0.27948 -0.240181,0.94315 l -0.016252,0.53969 -0.1049883,0.13362 c -0.132992,0.16925 -0.2168005,0.35912 -0.2500748,0.56653 -0.014362,0.0895 -0.026194,0.42198 -0.026311,0.73889 -1.539e-4,0.44377 -0.00756,0.57611 -0.032192,0.57586 -0.017618,-1.6e-4 -0.1529679,-0.0498 -0.3008105,-0.11034 z" />
      <path id="eye-1"
         d="m 3.5563067,287.35555 c -0.1750201,-0.053 -0.2613463,-0.23285 -0.1842015,-0.38375 0.079782,-0.15607 0.086533,-0.15701 1.135378,-0.15815 l 0.9542264,-8.8e-4 -0.1010253,0.12929 c -0.055562,0.0711 -0.1430657,0.19929 -0.1944552,0.28486 l -0.093429,0.15558 -0.7213723,-0.002 c -0.3967536,-10e-4 -0.7545582,-0.0123 -0.7951209,-0.0246 z" />
      <path id="eye-2"
         d="m 9.9146416,287.25217 c -0.046389,-0.0731 -0.1350704,-0.19902 -0.1970683,-0.27978 l -0.1127191,-0.14682 0.9494038,-0.007 c 1.063671,-0.008 1.072111,-0.006 1.144076,0.16786 0.03261,0.0789 0.03326,0.10645 0.0044,0.18324 -0.01869,0.0497 -0.06649,0.11493 -0.106207,0.14494 -0.06905,0.0522 -0.10555,0.0549 -0.834856,0.0624 l -0.7626467,0.008 z" />
   </g>
</svg>